<svg xmlns="http://www.w3.org/2000/svg" viewBox="0 0 5.33 5.33" width="16" height="16">
  <style>
    path { fill: #eeac17; }
    @media (prefers-color-scheme: dark) {
      path { fill: #eeac17; }
    }
  </style>
  <path d="M2.59 1.7l.08.12a1.64 1.64 0 01.52-.22l.16-.18c.1-.12.24-.22.38-.3a.46.46 0 00-.02-.04C3.4.73 2.43.9 1.97 1.4a.9.9 0 01.62.3zM1.54 3.28c.08-.13.2-.24.36-.33l.04-.15a1.7 1.7 0 01.7-.96c-.26-.18-.6-.24-.89-.2-.34.06-.64.27-.82.47a1.5 1.5 0 00-.33.6c.29-.09.51-.1.8.05.08.04.1.08.13.11-.44-.12-1.12-.02-1.35.37-.25.4-.22.8-.03 1.02.24.27.66.13 1.18-.22-.01-.24.05-.5.21-.76zM3.5 1.55a.9.9 0 01.6.3c.05.04.1.1.11.16-.26-.2-.62-.28-.94-.23a1.5 1.5 0 00-1.15 1.05c.3-.08.51-.1.8.06.08.04.1.08.13.11-.44-.11-1.12-.02-1.35.37-.24.4-.22.8-.03 1.02.38.43 1.26-.19 2.24-1.06.99-.88 1.7-1.67 1.32-2.1-.3-.36-1.28-.2-1.73.32z"/>
</svg>