<svg xmlns="http://www.w3.org/2000/svg" width="400" height="100" viewBox="0 0 52.92 13.23" aria-hidden="true"><path d="M10.56 2.53q0 .47-.17.96-.17.48-.45.96-.3.47-.68.91-.38.44-.82.81-.43.38-.9.67-.46.29-.9.46l-.18-.25q-.1-.15-.23-.3l-.25-.33-.24-.3q.93-.37 1.67-.87.75-.5 1.26-1.05.53-.56.8-1.12.28-.57.28-1.06l-.02-.14q-.02-.07-.06-.12-.05-.05-.13-.07-.07-.03-.17 0-.31.06-.68.24-.37.17-.78.44-.4.26-.85.61-.44.35-.9.75-.23.76-.55 1.6-.31.85-.68 1.7-.36.83-.77 1.62-.4.8-.82 1.45-.4.66-.83 1.13-.41.49-.8.7l-.24.1q-.13.04-.34.06-.08 0-.19-.06l-.22-.19q-.11-.1-.22-.25l-.2-.26q-.1-.12-.16-.22l-.09-.13q-.05-.1-.05-.24 0-.13.03-.26.13-.44.36-.96.24-.52.56-1.1.31-.57.7-1.17.4-.6.84-1.2.45-.6.94-1.19.5-.58 1.02-1.1.33-1.05.55-1.98.21-.92.25-1.61.26.1.5.27.24.16.42.34.2.17.34.35l.23.31-.04.23q-.01.11-.05.24.66-.42 1.3-.66.64-.24 1.24-.24.12 0 .27.08.15.08.3.21.15.12.29.28.14.16.25.32.11.16.18.3.07.14.08.23zm-9.47 8.22q.15 0 .4-.33.26-.34.57-.91.32-.58.67-1.34.36-.77.7-1.62-.51.61-.96 1.21-.43.6-.76 1.15-.32.53-.5.99-.19.45-.19.77 0 .08.07.08zM9.47 11.06q-.1 0-.25-.07t-.29-.17q-.13-.1-.23-.23-.1-.12-.1-.24l.18-.66q.1-.37.24-.76.12-.38.27-.75l.25-.66q.11-.29.2-.46.08-.18.11-.18.04 0 .2.08l.32.21q.18.12.32.26.13.13.13.23v.05l-.02.07-.14.39-.17.46-.18.48q-.1.23-.17.44l-.11.37q-.05.16-.05.23 0 .04.04.04.07 0 .22-.09.14-.08.32-.22l.4-.3.38-.32q.2-.16.34-.3l.23-.2.14.16.15.17-.35.35-.48.42q-.24.22-.52.43-.27.22-.52.39-.26.17-.48.27-.22.1-.38.1zm2.6-6.18l-.06.13-.1.24-.14.28-.14.27q-.07.12-.14.2-.06.09-.1.09-.12 0-.29-.07l-.32-.15q-.15-.08-.26-.16-.1-.08-.1-.11 0-.14.07-.36.08-.22.18-.42.1-.21.21-.36.11-.15.17-.15.12 0 .3.08.16.07.32.17t.27.2q.12.08.12.12z"/><path d="M15.95 12.93q-.19.1-.5.2-.3.1-.71.1-.1 0-.25-.09-.15-.07-.28-.2-.13-.11-.23-.24-.09-.12-.09-.22 0-.2.07-.4.08-.2.19-.38t.26-.35q.14-.16.29-.3-.1-.03-.21-.09-.1-.05-.18-.13-.08-.07-.13-.16-.05-.1-.05-.2v-.12l.01-.2q.01-.13.05-.3l.12-.43q-.22.23-.5.48-.3.25-.62.47-.32.22-.65.4-.32.18-.59.27l-.05.02h-.04q-.07 0-.17-.07-.11-.06-.22-.17-.1-.1-.17-.25-.08-.13-.08-.27l.04-.26q.04-.22.19-.56.14-.35.43-.78.29-.43.78-.88.26-.23.55-.43.25-.17.57-.35.32-.17.67-.28h.06l.18.09.22.11.19.13q.08.06.1.1v.02q-.3.17-.56.36l-.47.36q-.23.2-.43.4-.48.47-.67.82-.18.34-.18.49 0 .11.1.11.08 0 .22-.07.15-.08.32-.2l.39-.3.44-.37.4-.36q.16-.15.34-.35.17-.2.3-.42v-.02l.02.01q.07.05.17.18.09.11.17.26l.13.27q.06.13.06.2v.01q-.15.31-.24.56-.08.25-.12.44l-.06.33v.2q0 .04.04.04.06 0 .2-.08l.3-.22.38-.3.39-.31.32-.3.23-.2.3.34-.45.4-.57.48-.6.5-.53.43q-.13.1-.29.26l-.3.34-.23.36q-.09.19-.09.34 0 .09.06.13.06.06.14.06.07 0 .18-.03l.24-.06.26-.1.25-.1.04.2.05.24.05.24.05.15z"/><path d="M18.02 11.06q-.11 0-.3-.1-.17-.1-.34-.26-.17-.14-.3-.3-.12-.15-.12-.26 0-.2.11-.63.1-.42.28-.96l.4-1.17.46-1.22h-.93v-.01q0-.04.03-.11.02-.08.07-.16.04-.09.1-.15.05-.07.1-.1l.85-.03q.18-.45.35-.82l.3-.65.06-.15.1-.16q.08-.09.2-.17.1-.1.3-.19l.35-.15.4-.16.37-.12q.17-.05.24-.05.06 0 .06.03v.04q-.05.07-.15.3l-.26.54-.34.75q-.19.42-.38.9l1.57-.07q.06 0 .04.08-.03.08-.1.18l-.17.22-.16.17-.05.03H19.76l-.45 1.16-.38 1.1q-.17.53-.28.97-.1.44-.1.72 0 .04.04.04.08 0 .22-.08l.32-.22.39-.29.38-.3.33-.28.23-.2.14.15.15.17-.36.35-.47.42q-.25.22-.52.43-.27.22-.53.39t-.48.27q-.22.1-.37.1z"/><path d="M24.04 10.04q.1 0 .26-.07l.35-.2q.19-.12.39-.28l.38-.29.32-.27.23-.19.13.15.16.17-.36.36-.47.41-.52.44q-.27.21-.53.38t-.48.28q-.22.1-.37.1-.26 0-.47-.1-.2-.1-.37-.26-.16-.16-.3-.36-.15-.21-.28-.43l-.23.32-.2.33-.17.27-.08.15-.04.07q-.03.02-.09.02-.1 0-.23-.07-.13-.08-.27-.2-.14-.12-.27-.27-.14-.15-.24-.3-.05-.07-.06-.16l-.01-.22q0-.44.1-.98t.3-1.14q.18-.6.45-1.23.26-.64.59-1.27.32-.62.69-1.22.37-.6.77-1.11.4-.52.82-.93.42-.41.84-.67l.12-.05.1-.02q.08 0 .22.1.14.08.3.2l.3.25.21.2q.04.06.04.17 0 .44-.29 1.08-.29.64-.8 1.42-.53.77-1.28 1.64-.74.87-1.65 1.75l-.19.67-.17.66q.62-.89 1.09-1.4.48-.51.82-.77.34-.27.55-.34.21-.08.3-.08.08 0 .18.08.11.08.21.2l.18.2q.08.1.1.15 0 .06-.14.26t-.4.46q-.25.26-.6.56-.35.29-.76.53.2.3.36.47l.25.26q.12.1.2.12zm-.7-5.27q-.2.39-.4.87-.21.47-.41 1.01.72-.82 1.23-1.53.52-.7.84-1.28.34-.57.49-1.01.15-.44.15-.73v-.04q0-.03-.04-.03-.08 0-.26.19-.17.18-.42.53-.25.36-.56.87-.3.5-.62 1.15z"/><path d="M26.7 10.03q0 .2.15.2t.4-.24q.25-.24.51-.6 0-.08-.02-.13v-.1q0-.14.03-.31.03-.19.15-.41.08-.18.19-.35l.22-.32q.13-.18.29-.33l.04-.04.17.22.22.27.19.26.1.16q0 .28-.1.56t-.27.56q.39-.03.72-.2.34-.17.7-.57l.16.17.16.17q-.28.29-.55.48-.26.18-.53.3-.26.1-.53.16-.28.05-.56.05-.23.23-.48.43-.26.2-.53.34-.26.14-.52.22-.26.08-.5.08-.2 0-.4-.12-.21-.12-.38-.29-.17-.17-.28-.37-.11-.2-.11-.35 0-.5.13-.98.14-.5.42-.92.28-.43.72-.76.45-.33 1.06-.5l.06-.02h.09q.09 0 .19.07l.19.15.15.17.05.1q0 .04-.1.09l-.22.16q-.15.12-.34.34-.2.22-.43.58-.36.53-.48.96-.13.43-.13.66z"/><path d="M33.48 11.06q-.1 0-.25-.07-.15-.06-.31-.17-.16-.1-.3-.25-.15-.14-.2-.3-.35.32-.69.55-.34.22-.63.24-.1 0-.29-.09-.18-.08-.36-.22-.18-.13-.31-.3-.14-.18-.14-.35 0-.44.1-.89.09-.45.23-.9.14-.46.3-.88.17-.43.3-.82.34.15.66.34.32.18.6.43-.1.2-.2.46l-.21.56-.19.58-.15.54q-.07.25-.1.44-.04.19-.04.27l.01.1q.03.03.08.03.1 0 .22-.07t.25-.19q.14-.11.28-.27l.28-.32q.05-.35.14-.69.09-.34.2-.67.11-.34.24-.66l.24-.64q.33.15.65.34.32.19.6.43l-.2.44-.19.52-.16.52-.14.49-.08.39q-.04.17-.04.25l.02.1q.02.03.07.03.1 0 .25-.07.13-.08.28-.2.15-.13.3-.3l.3-.35q-.07-.2-.07-.47 0-.2.08-.5.07-.3.18-.6.11-.3.24-.54.14-.26.26-.38.15.05.3.16.17.1.3.21.14.11.23.23.09.1.1.17 0 .15-.07.35-.07.2-.2.44l-.3.49q-.17.25-.38.5.12.15.4.15.33 0 .66-.23.32-.23.75-.62l.15.15.15.17q-.54.54-.98.79-.43.24-.85.24-.39 0-.64-.22-.22.23-.45.43-.22.2-.44.35-.23.15-.44.24-.21.1-.4.1z"/><path d="M37.25 8.9l.35-.33.38-.4q.2-.22.36-.47.17-.25.27-.53.02-.15.08-.32.05-.17.12-.3.07-.14.14-.23.06-.1.11-.1l.24.18.31.27q.16.14.28.27.12.12.12.14-.08.3-.08.54.01.25.04.48l.08.5q.05.27.05.61 0 .21-.07.49-.07.27-.24.48.33-.2.66-.44l.58-.46.58-.51.3.32-.48.43q-.25.23-.52.45l-.55.43q-.28.2-.56.36-.27.15-.53.25-.25.09-.47.09-.2 0-.42-.1-.23-.09-.43-.22-.2-.13-.36-.27-.15-.15-.17-.24l.02-.06.07-.09.07-.08q.03-.04.05-.04.04 0 .16.06t.4.06q.14 0 .25-.08.1-.07.18-.2.07-.14.1-.3.04-.18.04-.37 0-.27-.03-.53-.02-.26-.06-.5-.1.13-.25.28l-.3.28-.3.28-.25.23-.32-.32z"/><path d="M45.19 10.04q.1 0 .26-.07l.35-.2q.2-.12.39-.28l.38-.29.32-.27.23-.19.13.15.16.17-.36.36-.47.41-.52.44q-.27.21-.53.38t-.48.28q-.22.1-.37.1-.26 0-.47-.1-.2-.1-.37-.26-.16-.16-.3-.36-.15-.21-.28-.43l-.23.32-.2.33-.17.27-.08.15-.04.07q-.03.02-.09.02-.1 0-.23-.07-.13-.08-.27-.2-.14-.12-.27-.27-.14-.15-.23-.3-.06-.07-.07-.16l-.01-.22q0-.44.1-.98t.3-1.14q.19-.6.45-1.23.27-.64.59-1.27.32-.62.69-1.22.37-.6.77-1.11.4-.52.82-.93.42-.41.84-.67l.12-.05.1-.02q.08 0 .22.1.14.08.3.2l.3.25.21.2q.04.06.04.17 0 .44-.29 1.08-.29.64-.8 1.42-.53.77-1.28 1.64-.74.87-1.65 1.75-.1.33-.18.67-.1.32-.18.66.62-.89 1.1-1.4.47-.51.8-.77.35-.27.56-.34.21-.08.3-.08.08 0 .18.08.11.08.21.2l.18.2q.08.1.1.15 0 .06-.14.26t-.4.46q-.25.26-.6.56-.35.29-.76.53.2.3.36.47l.25.26q.12.1.2.12zm-.7-5.27q-.2.39-.4.87-.21.47-.41 1.01.72-.82 1.23-1.53.52-.7.85-1.28.33-.57.48-1.01.15-.44.15-.73v-.04q0-.03-.04-.03-.08 0-.25.19-.18.18-.43.53-.25.36-.56.87-.3.5-.62 1.15z"/><path d="M50.75 10.12q0 .04.03.04.06 0 .2-.08l.31-.22.38-.3.38-.31.33-.3.23-.2.14.16.17.18-.38.35-.47.43-.52.44q-.27.22-.52.39-.26.17-.49.27-.23.11-.4.11-.11 0-.26-.04-.14-.05-.25-.13-.12-.08-.2-.2-.08-.1-.08-.24v-.12-.2l.06-.3.12-.43q-.22.23-.51.48-.29.25-.6.47-.33.22-.66.4-.32.18-.6.27l-.04.02h-.04q-.07 0-.17-.07-.11-.06-.22-.17-.1-.1-.18-.25-.07-.13-.07-.27l.03-.26q.04-.22.2-.56.14-.35.43-.78.28-.43.78-.88.26-.23.55-.43.25-.17.57-.35.32-.17.67-.28h.06l.18.09.21.11q.12.06.2.13.08.06.1.1v.02q-.3.17-.56.36l-.47.36-.44.4q-.47.47-.66.82-.18.34-.18.49 0 .11.1.11.08 0 .22-.07l.32-.2.39-.3.44-.37.4-.36q.16-.15.33-.35.18-.2.3-.42l.01-.01h.02q.07.05.16.18.1.11.17.26l.14.28q.05.13.05.2-.15.31-.23.56l-.13.44-.05.33v.2z"/></svg>